#!OML:ASF H:\Not Pregnant\Project 1\Capture day 1\Session 1\non-pregnant.ASF
:FULLY-SPECIFIED
:DEGREES
496
root -5.30948 16.2137 34.7481 -178.503 -81.281 -172.365
lowerback -7.68626 1.68288 -0.205021
upperback -7.1996 1.94804 0.145738
thorax -3.16231 0.858759 0.364825
lowerneck 11.754 -6.68447 -31.3226
upperneck -7.40004 -14.1961 43.4393
head 2.37585 -9.31896 23.6768
rclavicle 1.26725e-014 2.88238e-015
rhumerus -43.2579 -4.14032 -85.1259
rradius 27.6418
rwrist 22.4433
rhand -7.92858 1.88392
rfingers 7.12502
rthumb 17.9776 -27.3052
lclavicle 1.26725e-014 2.88238e-015
lhumerus -46.5799 -0.0434549 85.5676
lradius 34.8965
lwrist 54.6553
lhand 5.80997 -12.059
lfingers 7.12502
lthumb 31.1422 15.3152
rfemur -12.8713 -9.66361 19.5623
rtibia 16.9307
rfoot -17.406 17.3732
rtoes -9.94235
lfemur -11.5206 2.66109 -18.7551
ltibia 12.9469
lfoot -11.4241 -0.105126
ltoes -21.1179
497
root -5.31582 16.2136 34.7502 -178.676 -81.2655 -172.192
lowerback -7.72034 1.69112 -0.184567
upperback -7.19187 1.95777 0.134034
thorax -3.13427 0.862466 0.342827
lowerneck 11.7634 -6.68635 -31.3202
upperneck -7.40504 -14.2133 43.4845
head 2.38766 -9.33571 23.7129
rclavicle -6.83322e-016 -5.1684e-015
rhumerus -43.223 -3.99392 -85.2665
rradius 27.6847
rwrist 22.7182
rhand -7.67327 2.05108
rfingers 7.12502
rthumb 18.2232 -27.1153
lclavicle -6.83322e-016 -5.1684e-015
lhumerus -46.6 -0.192813 85.6045
lradius 34.9571
lwrist 54.9241
lhand 6.03092 -12.0141
lfingers 7.12502
lthumb 31.3528 15.3196
rfemur -12.8223 -9.6359 19.5763
rtibia 16.8864
rfoot -17.3957 17.3643
rtoes -9.9645
lfemur -11.5107 2.65574 -18.7341
ltibia 12.9848
lfoot -11.4551 -0.0799594
ltoes -21.0995
498
root -5.32213 16.2136 34.7527 -178.829 -81.2492 -172.04
lowerback -7.75149 1.69643 -0.176129
upperback -7.18635 1.96422 0.132225
thorax -3.11095 0.865236 0.337493
lowerneck 11.7668 -6.68615 -31.3245
upperneck -7.40521 -14.225 43.5191
head 2.3984 -9.34728 23.7427
rclavicle 3.47997e-014 1.36167e-014
rhumerus -43.1937 -3.78908 -85.3948
rradius 27.7291
rwrist 23.0033
rhand -7.51841 2.23661
rfingers 7.12502
rthumb 18.3722 -26.9158
lclavicle 3.47997e-014 1.36167e-014
lhumerus -46.5947 -0.199278 85.5787
lradius 34.9558
lwrist 55.0985
lhand 6.35883 -11.9827
lfingers 7.12502
lthumb 31.6652 15.2899
rfemur -12.7737 -9.59736 19.5863
rtibia 16.8402
rfoot -17.3837 17.3418
rtoes -10.0034
lfemur -11.5004 2.65019 -18.7179
ltibia 13.0184
lfoot -11.4833 -0.0539747
ltoes -21.1179
499
root -5.32852 16.2136 34.7554 -178.954 -81.2323 -171.914
lowerback -7.78022 1.70223 -0.177175
upperback -7.18394 1.97167 0.133288
thorax -3.0927 0.868912 0.340365
lowerneck 11.7708 -6.68603 -31.3284
upperneck -7.40365 -14.2353 43.5463
head 2.40758 -9.35708 23.7664
rclavicle 1.49089e-014 5.26779e-015
rhumerus -43.1691 -3.54011 -85.5156
rradius 27.7686
rwrist 23.2855
rhand -7.46895 2.41538
rfingers 7.12502
rthumb 18.4197 -26.7325
lclavicle 1.49089e-014 5.26779e-015
lhumerus -46.5673 -0.096273 85.4951
lradius 34.8995
lwrist 55.1931
lhand 6.78818 -11.9598
lfingers 7.12502
lthumb 32.0741 15.2313
rfemur -12.7247 -9.54706 19.5905
rtibia 16.7903
rfoot -17.3654 17.309
rtoes -10.036
lfemur -11.4908 2.64368 -18.7066
ltibia 13.0499
lfoot -11.5099 -0.0316759
ltoes -21.1218
500
root -5.33499 16.2136 34.7579 -179.082 -81.213 -171.784
lowerback -7.80885 1.71379 -0.183028
upperback -7.18351 1.98692 0.133695
thorax -3.07682 0.876638 0.345602
lowerneck 11.7833 -6.68965 -31.3198
upperneck -7.40867 -14.2484 43.568
head 2.4123 -9.36838 23.7807
rclavicle 1.76918e-014 9.93923e-016
rhumerus -43.1481 -3.27427 -85.6277
rradius 27.7999
rwrist 23.5501
rhand -7.49876 2.57079
rfingers 7.12502
rthumb 18.3911 -26.5798
lclavicle 1.76918e-014 9.93923e-016
lhumerus -46.515 0.0981424 85.3553
lradius 34.7888
lwrist 55.2118
lhand 7.31733 -11.9457
lfingers 7.12502
lthumb 32.5777 15.1427
rfemur -12.6761 -9.484 19.5965
rtibia 16.7388
rfoot -17.3503 17.258
rtoes -10.1039
lfemur -11.4812 2.64219 -18.694
ltibia 13.0776
lfoot -11.5344 -0.0124283
ltoes -21.13
501
root -5.34158 16.2137 34.7604 -179.24 -81.1907 -171.621
lowerback -7.83918 1.73092 -0.180217
upperback -7.184 2.00898 0.128534
thorax -3.0605 0.887256 0.34064
lowerneck 11.8051 -6.69564 -31.3029
upperneck -7.41899 -14.2657 43.5919
head 2.41508 -9.38318 23.7939
rclavicle 2.41026e-015 5.06901e-015
rhumerus -43.1268 -2.99532 -85.7472
rradius 27.824
rwrist 23.7517
rhand -7.60925 2.67376
rfingers 7.12502
rthumb 18.2848 -26.4869
lclavicle 2.41026e-015 5.06901e-015
lhumerus -46.47 0.26748 85.223
lradius 34.6885
lwrist 55.243
lhand 7.83609 -11.9231
lfingers 7.12502
lthumb 33.0712 15.062
rfemur -12.6274 -9.4134 19.6081
rtibia 16.6851
rfoot -17.3367 17.1996
rtoes -10.1823
lfemur -11.4719 2.65322 -18.6768
ltibia 13.1032
lfoot -11.5584 -0.0022113
ltoes -21.1374
502
root -5.34842 16.2136 34.7632 -179.354 -81.1704 -171.502
lowerback -7.87311 1.74967 -0.173955
upperback -7.18412 2.03287 0.115762
thorax -3.04139 0.898454 0.326118
lowerneck 11.8321 -6.70294 -31.28
upperneck -7.43137 -14.2851 43.6156
head 2.41649 -9.39963 23.8049
rclavicle -5.69021e-015 -7.95139e-016
rhumerus -43.1044 -2.7093 -85.8717
rradius 27.8449
rwrist 23.8749
rhand -7.76566 2.71793
rfingers 7.12502
rthumb 18.1343 -26.4567
lclavicle -5.69021e-015 -7.95139e-016
lhumerus -46.4413 0.386077 85.1176
lradius 34.6163
lwrist 55.3172
lhand 8.32431 -11.8832
lfingers 7.12502
lthumb 33.5353 15.0025
rfemur -12.5791 -9.36067 19.6114
rtibia 16.6315
rfoot -17.3272 17.1576
rtoes -10.2596
lfemur -11.4618 2.67327 -18.6698
ltibia 13.1267
lfoot -11.5845 0.000515189
ltoes -21.1648
503
root -5.3554 16.2136 34.7661 -179.466 -81.1467 -171.383
lowerback -7.91219 1.7669 -0.161368
upperback -7.18458 2.05429 0.102998
thorax -3.01953 0.908093 0.308116
lowerneck 11.8585 -6.70765 -31.2664
upperneck -7.43869 -14.3037 43.6403
head 2.42009 -9.4157 23.8205
rclavicle 3.90115e-015 -6.55989e-015
rhumerus -43.0834 -2.43275 -85.9957
rradius 27.8659
rwrist 23.9249
rhand -7.94273 2.71384
rfingers 7.12502
rthumb 17.9639 -26.4765
lclavicle 3.90115e-015 -6.55989e-015
lhumerus -46.428 0.485394 85.03
lradius 34.5656
lwrist 55.4248
lhand 8.79052 -11.8287
lfingers 7.12502
lthumb 33.9783 14.9599
rfemur -12.5368 -9.32134 19.6155
rtibia 16.5819
rfoot -17.3216 17.1332
rtoes -10.3283
lfemur -11.4509 2.7093 -18.6646
ltibia 13.1437
lfoot -11.6103 -0.00525051
ltoes -21.2145
504
root -5.3624 16.2136 34.7694 -179.523 -81.1217 -171.318
lowerback -7.9529 1.78319 -0.148697
upperback -7.18553 2.07432 0.0868307
thorax -2.99714 0.916921 0.286551
lowerneck 11.8849 -6.71054 -31.2594
upperneck -7.44316 -14.321 43.6638
head 2.42442 -9.4309 23.8379
rclavicle 3.50358e-015 1.49089e-015
rhumerus -43.0627 -2.18279 -86.1089
rradius 27.8853
rwrist 23.9088
rhand -8.12978 2.68313
rfingers 7.12502
rthumb 17.784 -26.5237
lclavicle 3.50358e-015 1.49089e-015
lhumerus -46.4228 0.581547 84.9499
lradius 34.5246
lwrist 55.545
lhand 9.2585 -11.7614
lfingers 7.12502
lthumb 34.4227 14.9275
rfemur -12.5009 -9.3078 19.6113
rtibia 16.5376
rfoot -17.3246 17.1323
rtoes -10.4001
lfemur -11.4377 2.75405 -18.6706
ltibia 13.1528
lfoot -11.6348 -0.0204845
ltoes -21.2622
505
root -5.36942 16.2138 34.7728 -179.519 -81.0929 -171.313
lowerback -7.99491 1.79722 -0.141973
upperback -7.18587 2.09161 0.0693168
thorax -2.97354 0.924593 0.266849
lowerneck 11.9102 -6.71001 -31.2604
upperneck -7.44319 -14.3352 43.6866
head 2.42937 -9.44419 23.8585
rclavicle -2.57426e-014 -1.53064e-014
rhumerus -43.0418 -1.94363 -86.2188
rradius 27.9047
rwrist 23.8182
rhand -8.3331 2.62568
rfingers 7.12502
rthumb 17.5883 -26.5988
lclavicle -2.57426e-014 -1.53064e-014
lhumerus -46.4245 0.676203 84.8779
lradius 34.4908
lwrist 55.6792
lhand 9.72236 -11.6867
lfingers 7.12502
lthumb 34.863 14.9013
rfemur -12.4683 -9.30108 19.5971
rtibia 16.4984
rfoot -17.3266 17.1457
rtoes -10.4498
lfemur -11.4191 2.80839 -18.6873
ltibia 13.1525
lfoot -11.6591 -0.0404062
ltoes -21.3235
506
root -5.37638 16.214 34.7758 -179.537 -81.0571 -171.287
lowerback -8.03827 1.81238 -0.136402
upperback -7.18475 2.11057 0.0551836
thorax -2.94783 0.933251 0.25145
lowerneck 11.935 -6.70893 -31.2647
upperneck -7.44263 -14.3486 43.7077
head 2.43427 -9.45668 23.8789
rclavicle 7.10655e-015 3.57812e-015
rhumerus -43.016 -1.75683 -86.3004
rradius 27.9178
rwrist 23.6973
rhand -8.55031 2.56019
rfingers 7.12502
rthumb 17.3793 -26.6828
lclavicle 7.10655e-015 3.57812e-015
lhumerus -46.4296 0.762061 84.8199
lradius 34.463
lwrist 55.8241
lhand 10.1782 -11.6032
lfingers 7.12502
lthumb 35.2953 14.8834
rfemur -12.4387 -9.28251 19.5889
rtibia 16.4645
rfoot -17.331 17.1505
rtoes -10.5008
lfemur -11.3938 2.87084 -18.698
ltibia 13.1411
lfoot -11.6797 -0.0612403
ltoes -21.3971
